# xmcd
#
# Track frame offsets:
#	150
#	13359
#	23756
#	39041
#	48305
#	63645
#	70329
#	81266
#	97703
#	108780
#	119730
#	134872
#	144909
#	156716
#	173268
#	189228
#
# Disc length: 2660 seconds
#
# Revision: 0
# Processed by: cddbd v1.5PL3 Copyright (c) Steve Scherf et al.
# Submitted via: EasyCDDAExtractor 5.0.0.0
#
DISCID=d60a6210
DTITLE=Tammy Wynette - Country Legends
DYEAR=1900
DGENRE=Country
TTITLE0=My Man (Understands)
TTITLE1=Another Chance
TTITLE2=Til I Can Make It On My Own
TTITLE3=Rocky Top
TTITLE4=Alive And Well
TTITLE5=Medley: What A Difference You've Made In My Life/You Light Up My Life
TTITLE6=(They Call It) Making Love
TTITLE7=You And Me
TTITLE8=Take Me To Your World
TTITLE9=Womanhood
TTITLE10=Crying In The Rain
TTITLE11=I Still Believe In Fairy Tales
TTITLE12=Stand By Your Man
TTITLE13=Medley: Amazing Grace/I'll Fly Away/Will The Circle Be Unbroken/I Saw
TTITLE13=The Light
TTITLE14=Let's Call It A Day, Today
TTITLE15=Heart Over Mind
EXTD=
EXTT0=
EXTT1=
EXTT2=
EXTT3=
EXTT4=
EXTT5=
EXTT6=
EXTT7=
EXTT8=
EXTT9=
EXTT10=
EXTT11=
EXTT12=
EXTT13=
EXTT14=
EXTT15=
PLAYORDER=
